# Blender 5.2.0 LTS
# www.blender.org
o Sphere
v 0.000000 1.000000 0.000000
v 0.000000 0.831470 -0.555570
v 0.000000 0.555570 -0.831470
v 0.000000 0.195090 -0.980785
v 0.000000 0.000000 -1.000000
v 0.000000 -0.195090 -0.980785
v 0.000000 -0.555570 -0.831470
v 0.000000 -1.000000 0.000000
v 0.038060 0.980785 -0.191342
v 0.074658 0.923880 -0.375330
v 0.108386 0.831470 -0.544895
v 0.137950 0.707107 -0.693520
v 0.162212 0.555570 -0.815493
v 0.180240 0.382683 -0.906127
v 0.191342 0.195090 -0.961940
v 0.195090 0.000000 -0.980785
v 0.191342 -0.195090 -0.961940
v 0.180240 -0.382683 -0.906127
v 0.162212 -0.555570 -0.815493
v 0.137950 -0.707107 -0.693520
v 0.108386 -0.831470 -0.544895
v 0.074658 -0.923880 -0.375330
v 0.038060 -0.980785 -0.191342
v 0.074658 0.980785 -0.180240
v 0.146447 0.923880 -0.353553
v 0.212608 0.831470 -0.513280
v 0.270598 0.707107 -0.653281
v 0.318190 0.555570 -0.768178
v 0.353553 0.382683 -0.853553
v 0.375330 0.195090 -0.906127
v 0.382683 0.000000 -0.923879
v 0.375330 -0.195090 -0.906127
v 0.353553 -0.382683 -0.853553
v 0.318190 -0.555570 -0.768178
v 0.270598 -0.707107 -0.653281
v 0.212608 -0.831470 -0.513280
v 0.146447 -0.923880 -0.353553
v 0.074658 -0.980785 -0.180240
v 0.108386 0.980785 -0.162212
v 0.212608 0.923880 -0.318190
v 0.308658 0.831470 -0.461940
v 0.392847 0.707107 -0.587938
v 0.461940 0.555570 -0.691342
v 0.513280 0.382683 -0.768178
v 0.544895 0.195090 -0.815493
v 0.555570 0.000000 -0.831469
v 0.544895 -0.195090 -0.815493
v 0.513280 -0.382683 -0.768178
v 0.461940 -0.555570 -0.691342
v 0.392847 -0.707107 -0.587938
v 0.308658 -0.831470 -0.461940
v 0.212608 -0.923880 -0.318190
v 0.108386 -0.980785 -0.162212
v 0.137950 0.980785 -0.137950
v 0.270598 0.923880 -0.270598
v 0.392847 0.831470 -0.392847
v 0.500000 0.707107 -0.500000
v 0.587938 0.555570 -0.587938
v 0.653281 0.382683 -0.653281
v 0.693520 0.195090 -0.693520
v 0.707107 0.000000 -0.707107
v 0.693520 -0.195090 -0.693520
v 0.653281 -0.382683 -0.653281
v 0.587938 -0.555570 -0.587938
v 0.500000 -0.707107 -0.500000
v 0.392847 -0.831470 -0.392847
v 0.270598 -0.923880 -0.270598
v 0.137950 -0.980785 -0.137950
v 0.162212 0.980785 -0.108386
v 0.318190 0.923880 -0.212608
v 0.461940 0.831470 -0.308658
v 0.587938 0.707107 -0.392847
v 0.691342 0.555570 -0.461940
v 0.768178 0.382683 -0.513280
v 0.815493 0.195090 -0.544895
v 0.831470 0.000000 -0.555570
v 0.815493 -0.195090 -0.544895
v 0.768178 -0.382683 -0.513280
v 0.691342 -0.555570 -0.461940
v 0.587938 -0.707107 -0.392847
v 0.461940 -0.831470 -0.308658
v 0.318190 -0.923880 -0.212608
v 0.162212 -0.980785 -0.108386
v 0.180240 0.980785 -0.074658
v 0.353553 0.923880 -0.146447
v 0.513280 0.831470 -0.212607
v 0.653281 0.707107 -0.270598
v 0.768178 0.555570 -0.318190
v 0.853553 0.382683 -0.353553
v 0.906127 0.195090 -0.375330
v 0.923879 0.000000 -0.382683
v 0.906127 -0.195090 -0.375330
v 0.853553 -0.382683 -0.353553
v 0.768178 -0.555570 -0.318190
v 0.653281 -0.707107 -0.270598
v 0.513280 -0.831470 -0.212607
v 0.353553 -0.923880 -0.146447
v 0.180240 -0.980785 -0.074658
v 0.191342 0.980785 -0.038060
v 0.375330 0.923880 -0.074658
v 0.544895 0.831470 -0.108386
v 0.693520 0.707107 -0.137950
v 0.815493 0.555570 -0.162212
v 0.906127 0.382683 -0.180240
v 0.961940 0.195090 -0.191342
v 0.980785 0.000000 -0.195090
v 0.961940 -0.195090 -0.191342
v 0.906127 -0.382683 -0.180240
v 0.815493 -0.555570 -0.162212
v 0.693520 -0.707107 -0.137950
v 0.544895 -0.831470 -0.108386
v 0.375330 -0.923880 -0.074658
v 0.191342 -0.980785 -0.038060
v 0.195090 0.980785 0.000000
v 0.382683 0.923880 0.000000
v 0.555570 0.831470 0.000000
v 0.707107 0.707107 -0.000000
v 0.831469 0.555570 0.000000
v 0.923879 0.382683 -0.000000
v 0.980785 0.195090 0.000000
v 1.000000 0.000000 0.000000
v 0.980785 -0.195090 0.000000
v 0.923879 -0.382683 -0.000000
v 0.831469 -0.555570 0.000000
v 0.707107 -0.707107 -0.000000
v 0.555570 -0.831470 0.000000
v 0.382683 -0.923880 0.000000
v 0.195090 -0.980785 0.000000
v 0.191342 0.980785 0.038060
v 0.375330 0.923880 0.074658
v 0.544895 0.831470 0.108386
v 0.693520 0.707107 0.137950
v 0.815493 0.555570 0.162212
v 0.906127 0.382683 0.180240
v 0.961940 0.195090 0.191342
v 0.980785 0.000000 0.195090
v 0.961940 -0.195090 0.191342
v 0.906127 -0.382683 0.180240
v 0.815493 -0.555570 0.162212
v 0.693520 -0.707107 0.137950
v 0.544895 -0.831470 0.108386
v 0.375330 -0.923880 0.074658
v 0.191342 -0.980785 0.038060
v 0.180240 0.980785 0.074658
v 0.353553 0.923880 0.146447
v 0.513280 0.831470 0.212608
v 0.653281 0.707107 0.270598
v 0.768178 0.555570 0.318190
v 0.853553 0.382683 0.353553
v 0.906127 0.195090 0.375330
v 0.923879 0.000000 0.382683
v 0.906127 -0.195090 0.375330
v 0.853553 -0.382683 0.353553
v 0.768178 -0.555570 0.318190
v 0.653281 -0.707107 0.270598
v 0.513280 -0.831470 0.212608
v 0.353553 -0.923880 0.146447
v 0.180240 -0.980785 0.074658
v 0.162212 0.980785 0.108386
v 0.318190 0.923880 0.212608
v 0.461940 0.831470 0.308658
v 0.587938 0.707107 0.392847
v 0.691341 0.555570 0.461940
v 0.768178 0.382683 0.513280
v 0.815493 0.195090 0.544895
v 0.831469 0.000000 0.555570
v 0.815493 -0.195090 0.544895
v 0.768178 -0.382683 0.513280
v 0.691341 -0.555570 0.461940
v 0.587938 -0.707107 0.392847
v 0.461940 -0.831470 0.308658
v 0.318190 -0.923880 0.212608
v 0.162212 -0.980785 0.108386
v 0.137950 0.980785 0.137950
v 0.270598 0.923880 0.270598
v 0.392847 0.831470 0.392847
v 0.500000 0.707107 0.500000
v 0.587938 0.555570 0.587938
v 0.653281 0.382683 0.653281
v 0.693520 0.195090 0.693520
v 0.707106 0.000000 0.707107
v 0.693520 -0.195090 0.693520
v 0.653281 -0.382683 0.653281
v 0.587938 -0.555570 0.587938
v 0.500000 -0.707107 0.500000
v 0.392847 -0.831470 0.392847
v 0.270598 -0.923880 0.270598
v 0.137950 -0.980785 0.137950
v 0.108386 0.980785 0.162212
v 0.212607 0.923880 0.318190
v 0.308658 0.831470 0.461940
v 0.392847 0.707107 0.587938
v 0.461940 0.555570 0.691342
v 0.513280 0.382683 0.768178
v 0.544895 0.195090 0.815493
v 0.555570 0.000000 0.831469
v 0.544895 -0.195090 0.815493
v 0.513280 -0.382683 0.768178
v 0.461940 -0.555570 0.691342
v 0.392847 -0.707107 0.587938
v 0.308658 -0.831470 0.461940
v 0.212607 -0.923880 0.318190
v 0.108386 -0.980785 0.162212
v 0.074658 0.980785 0.180240
v 0.146447 0.923880 0.353553
v 0.212607 0.831470 0.513280
v 0.270598 0.707107 0.653281
v 0.318189 0.555570 0.768178
v 0.353553 0.382683 0.853553
v 0.375330 0.195090 0.906127
v 0.382683 0.000000 0.923879
v 0.375330 -0.195090 0.906127
v 0.353553 -0.382683 0.853553
v 0.318189 -0.555570 0.768178
v 0.270598 -0.707107 0.653281
v 0.212607 -0.831470 0.513280
v 0.146447 -0.923880 0.353553
v 0.074658 -0.980785 0.180240
v 0.038060 0.980785 0.191342
v 0.074658 0.923880 0.375330
v 0.108386 0.831470 0.544895
v 0.137950 0.707107 0.693520
v 0.162212 0.555570 0.815493
v 0.180240 0.382683 0.906127
v 0.191342 0.195090 0.961939
v 0.195090 0.000000 0.980785
v 0.191342 -0.195090 0.961939
v 0.180240 -0.382683 0.906127
v 0.162212 -0.555570 0.815493
v 0.137950 -0.707107 0.693520
v 0.108386 -0.831470 0.544895
v 0.074658 -0.923880 0.375330
v 0.038060 -0.980785 0.191342
v -0.000000 0.980785 0.195090
v -0.000000 0.923880 0.382683
v -0.000000 0.831470 0.555570
v -0.000000 0.707107 0.707107
v -0.000000 0.555570 0.831469
v 0.000000 0.382683 0.923879
v -0.000000 0.195090 0.980785
v -0.000000 0.000000 0.999999
v -0.000000 -0.195090 0.980785
v 0.000000 -0.382683 0.923879
v -0.000000 -0.555570 0.831469
v -0.000000 -0.707107 0.707107
v -0.000000 -0.831470 0.555570
v -0.000000 -0.923880 0.382683
v -0.000000 -0.980785 0.195090
v -0.038060 0.980785 0.191342
v -0.074658 0.923880 0.375330
v -0.108386 0.831470 0.544895
v -0.137950 0.707107 0.693520
v -0.162212 0.555570 0.815493
v -0.180240 0.382683 0.906127
v -0.191342 0.195090 0.961939
v -0.195091 0.000000 0.980785
v -0.191342 -0.195090 0.961939
v -0.180240 -0.382683 0.906127
v -0.162212 -0.555570 0.815493
v -0.137950 -0.707107 0.693520
v -0.108386 -0.831470 0.544895
v -0.074658 -0.923880 0.375330
v -0.038060 -0.980785 0.191342
v -0.074658 0.980785 0.180240
v -0.146447 0.923880 0.353553
v -0.212608 0.831470 0.513280
v -0.270598 0.707107 0.653281
v -0.318190 0.555570 0.768177
v -0.353553 0.382683 0.853553
v -0.375330 0.195090 0.906127
v -0.382683 0.000000 0.923879
v -0.375330 -0.195090 0.906127
v -0.353553 -0.382683 0.853553
v -0.318190 -0.555570 0.768177
v -0.270598 -0.707107 0.653281
v -0.212608 -0.831470 0.513280
v -0.146447 -0.923880 0.353553
v -0.074658 -0.980785 0.180240
v -0.108386 0.980785 0.162212
v -0.212608 0.923880 0.318190
v -0.308658 0.831470 0.461939
v -0.392847 0.707107 0.587938
v -0.461940 0.555570 0.691341
v -0.513280 0.382683 0.768178
v -0.544895 0.195090 0.815493
v -0.555570 0.000000 0.831469
v -0.544895 -0.195090 0.815493
v -0.513280 -0.382683 0.768178
v -0.461940 -0.555570 0.691341
v -0.392847 -0.707107 0.587938
v -0.308658 -0.831470 0.461939
v -0.212608 -0.923880 0.318190
v -0.108386 -0.980785 0.162212
v -0.137950 0.980785 0.137950
v -0.270598 0.923880 0.270598
v -0.392847 0.831470 0.392847
v -0.500000 0.707107 0.500000
v -0.587938 0.555570 0.587937
v -0.653281 0.382683 0.653281
v -0.693520 0.195090 0.693520
v -0.707106 0.000000 0.707106
v -0.693520 -0.195090 0.693520
v -0.653281 -0.382683 0.653281
v -0.587938 -0.555570 0.587937
v -0.500000 -0.707107 0.500000
v -0.392847 -0.831470 0.392847
v -0.270598 -0.923880 0.270598
v -0.137950 -0.980785 0.137950
v -0.162212 0.980785 0.108386
v -0.318190 0.923880 0.212607
v -0.461940 0.831470 0.308658
v -0.587938 0.707107 0.392847
v -0.691341 0.555570 0.461939
v -0.768177 0.382683 0.513280
v -0.815493 0.195090 0.544895
v -0.831469 0.000000 0.555569
v -0.815493 -0.195090 0.544895
v -0.768177 -0.382683 0.513280
v -0.691341 -0.555570 0.461939
v -0.587938 -0.707107 0.392847
v -0.461940 -0.831470 0.308658
v -0.318190 -0.923880 0.212607
v -0.162212 -0.980785 0.108386
v -0.180240 0.980785 0.074658
v -0.353553 0.923880 0.146447
v -0.513280 0.831470 0.212607
v -0.653281 0.707107 0.270598
v -0.768177 0.555570 0.318189
v -0.853553 0.382683 0.353553
v -0.906127 0.195090 0.375330
v -0.923879 0.000000 0.382683
v -0.906127 -0.195090 0.375330
v -0.853553 -0.382683 0.353553
v -0.768177 -0.555570 0.318189
v -0.653281 -0.707107 0.270598
v -0.513280 -0.831470 0.212607
v -0.353553 -0.923880 0.146447
v -0.180240 -0.980785 0.074658
v -0.191342 0.980785 0.038060
v -0.375330 0.923880 0.074658
v -0.544895 0.831470 0.108386
v -0.693520 0.707107 0.137950
v -0.815493 0.555570 0.162211
v -0.906127 0.382683 0.180240
v -0.961939 0.195090 0.191341
v -0.980784 0.000000 0.195090
v -0.961939 -0.195090 0.191341
v -0.906127 -0.382683 0.180240
v -0.815493 -0.555570 0.162211
v -0.693520 -0.707107 0.137950
v -0.544895 -0.831470 0.108386
v -0.375330 -0.923880 0.074658
v -0.191342 -0.980785 0.038060
v -0.195090 0.980785 -0.000000
v -0.382683 0.923880 -0.000000
v -0.555570 0.831470 -0.000000
v -0.707107 0.707107 -0.000000
v -0.831469 0.555570 -0.000000
v -0.923879 0.382683 -0.000000
v -0.980785 0.195090 -0.000000
v -0.999999 0.000000 -0.000000
v -0.980785 -0.195090 -0.000000
v -0.923879 -0.382683 -0.000000
v -0.831469 -0.555570 -0.000000
v -0.707107 -0.707107 -0.000000
v -0.555570 -0.831470 -0.000000
v -0.382683 -0.923880 -0.000000
v -0.195090 -0.980785 -0.000000
v -0.191342 0.980785 -0.038060
v -0.375330 0.923880 -0.074658
v -0.544895 0.831470 -0.108386
v -0.693520 0.707107 -0.137950
v -0.815493 0.555570 -0.162212
v -0.906127 0.382683 -0.180240
v -0.961939 0.195090 -0.191342
v -0.980784 0.000000 -0.195091
v -0.961939 -0.195090 -0.191342
v -0.906127 -0.382683 -0.180240
v -0.815493 -0.555570 -0.162212
v -0.693520 -0.707107 -0.137950
v -0.544895 -0.831470 -0.108386
v -0.375330 -0.923880 -0.074658
v -0.191342 -0.980785 -0.038060
v -0.180240 0.980785 -0.074658
v -0.353553 0.923880 -0.146447
v -0.513279 0.831470 -0.212607
v -0.653281 0.707107 -0.270598
v -0.768177 0.555570 -0.318190
v -0.853553 0.382683 -0.353553
v -0.906127 0.195090 -0.375330
v -0.923878 0.000000 -0.382683
v -0.906127 -0.195090 -0.375330
v -0.853553 -0.382683 -0.353553
v -0.768177 -0.555570 -0.318190
v -0.653281 -0.707107 -0.270598
v -0.513279 -0.831470 -0.212607
v -0.353553 -0.923880 -0.146447
v -0.180240 -0.980785 -0.074658
v -0.162212 0.980785 -0.108386
v -0.318189 0.923880 -0.212607
v -0.461939 0.831470 -0.308658
v -0.587938 0.707107 -0.392847
v -0.691341 0.555570 -0.461940
v -0.768177 0.382683 -0.513280
v -0.815493 0.195090 -0.544895
v -0.831468 0.000000 -0.555570
v -0.815493 -0.195090 -0.544895
v -0.768177 -0.382683 -0.513280
v -0.691341 -0.555570 -0.461940
v -0.587938 -0.707107 -0.392847
v -0.461939 -0.831470 -0.308658
v -0.318189 -0.923880 -0.212607
v -0.162212 -0.980785 -0.108386
v -0.137950 0.980785 -0.137950
v -0.270598 0.923880 -0.270598
v -0.392847 0.831470 -0.392847
v -0.500000 0.707107 -0.500000
v -0.587937 0.555570 -0.587938
v -0.653281 0.382683 -0.653281
v -0.693519 0.195090 -0.693520
v -0.707106 0.000000 -0.707106
v -0.693519 -0.195090 -0.693520
v -0.653281 -0.382683 -0.653281
v -0.587937 -0.555570 -0.587938
v -0.500000 -0.707107 -0.500000
v -0.392847 -0.831470 -0.392847
v -0.270598 -0.923880 -0.270598
v -0.137950 -0.980785 -0.137950
v -0.108386 0.980785 -0.162212
v -0.212607 0.923880 -0.318190
v -0.308658 0.831470 -0.461939
v -0.392847 0.707107 -0.587938
v -0.461939 0.555570 -0.691341
v -0.513280 0.382683 -0.768177
v -0.544895 0.195090 -0.815493
v -0.555569 0.000000 -0.831469
v -0.544895 -0.195090 -0.815493
v -0.513280 -0.382683 -0.768177
v -0.461939 -0.555570 -0.691341
v -0.392847 -0.707107 -0.587938
v -0.308658 -0.831470 -0.461939
v -0.212607 -0.923880 -0.318190
v -0.108386 -0.980785 -0.162212
v -0.074658 0.980785 -0.180240
v -0.146446 0.923880 -0.353553
v -0.212607 0.831470 -0.513279
v -0.270598 0.707107 -0.653281
v -0.318189 0.555570 -0.768177
v -0.353553 0.382683 -0.853553
v -0.375330 0.195090 -0.906127
v -0.382683 0.000000 -0.923879
v -0.375330 -0.195090 -0.906127
v -0.353553 -0.382683 -0.853553
v -0.318189 -0.555570 -0.768177
v -0.270598 -0.707107 -0.653281
v -0.212607 -0.831470 -0.513279
v -0.146446 -0.923880 -0.353553
v -0.074658 -0.980785 -0.180240
v -0.038060 0.980785 -0.191342
v -0.074658 0.923880 -0.375330
v -0.108386 0.831470 -0.544895
v -0.137950 0.707107 -0.693520
v -0.162211 0.555570 -0.815493
v -0.180240 0.382683 -0.906127
v -0.191341 0.195090 -0.961939
v -0.195090 0.000000 -0.980784
v -0.191341 -0.195090 -0.961939
v -0.180240 -0.382683 -0.906127
v -0.162211 -0.555570 -0.815493
v -0.137950 -0.707107 -0.693520
v -0.108386 -0.831470 -0.544895
v -0.074658 -0.923880 -0.375330
v -0.038060 -0.980785 -0.191342
v 0.000000 0.980785 -0.195090
v 0.000000 0.923880 -0.382683
v 0.000000 0.707107 -0.707107
v 0.000000 0.382683 -0.923879
v 0.000000 -0.382683 -0.923879
v 0.000000 -0.707107 -0.707107
v 0.000000 -0.831470 -0.555570
v 0.000000 -0.923880 -0.382683
v 0.000000 -0.980785 -0.195090
vn 0.0975 -0.0975 -0.9904
vn 0.0286 0.9565 -0.2902
vn 0.0938 -0.2890 -0.9527
vn 0.0464 0.8810 -0.4709
vn 0.0865 -0.4696 -0.8786
vn 0.0624 0.7715 -0.6332
vn 0.0759 -0.6326 -0.7708
vn 0.0759 0.6326 -0.7708
vn 0.0624 -0.7715 -0.6332
vn 0.0865 0.4696 -0.8786
vn 0.0464 -0.8810 -0.4709
vn 0.0938 0.2890 -0.9527
vn 0.0286 -0.9565 -0.2902
vn 0.0975 0.0975 -0.9904
vn 0.0097 0.9951 -0.0980
vn 0.0097 -0.9951 -0.0980
vn 0.0846 -0.9565 -0.2790
vn 0.2889 0.0976 -0.9524
vn 0.0286 0.9951 -0.0942
vn 0.0286 -0.9951 -0.0942
vn 0.2889 -0.0976 -0.9524
vn 0.0846 0.9565 -0.2790
vn 0.2779 -0.2890 -0.9161
vn 0.1374 0.8810 -0.4528
vn 0.2563 -0.4696 -0.8448
vn 0.1847 0.7715 -0.6088
vn 0.2248 -0.6326 -0.7412
vn 0.2248 0.6326 -0.7412
vn 0.1847 -0.7715 -0.6088
vn 0.2563 0.4696 -0.8448
vn 0.1374 -0.8810 -0.4528
vn 0.2779 0.2890 -0.9161
vn 0.3651 -0.6326 -0.6831
vn 0.3651 0.6326 -0.6831
vn 0.2999 -0.7715 -0.5611
vn 0.4162 0.4696 -0.7786
vn 0.2230 -0.8810 -0.4173
vn 0.4513 0.2890 -0.8443
vn 0.1374 -0.9565 -0.2571
vn 0.4691 0.0975 -0.8777
vn 0.0464 0.9951 -0.0869
vn 0.0464 -0.9951 -0.0869
vn 0.4691 -0.0975 -0.8777
vn 0.1374 0.9565 -0.2571
vn 0.4513 -0.2890 -0.8443
vn 0.2230 0.8810 -0.4173
vn 0.4162 -0.4696 -0.7786
vn 0.2999 0.7715 -0.5611
vn 0.0625 0.9951 -0.0761
vn 0.0625 -0.9951 -0.0761
vn 0.6314 -0.0975 -0.7693
vn 0.1850 0.9565 -0.2254
vn 0.6073 -0.2890 -0.7400
vn 0.3002 0.8810 -0.3658
vn 0.5601 -0.4696 -0.6825
vn 0.4036 0.7715 -0.4918
vn 0.4913 -0.6326 -0.5987
vn 0.4913 0.6326 -0.5987
vn 0.4036 -0.7715 -0.4918
vn 0.5601 0.4696 -0.6825
vn 0.3002 -0.8810 -0.3658
vn 0.6073 0.2890 -0.7400
vn 0.1850 -0.9565 -0.2254
vn 0.6314 0.0975 -0.7693
vn 0.5987 0.6326 -0.4913
vn 0.4918 -0.7715 -0.4036
vn 0.6825 0.4696 -0.5601
vn 0.3658 -0.8810 -0.3002
vn 0.7400 0.2890 -0.6073
vn 0.2254 -0.9565 -0.1850
vn 0.7693 0.0975 -0.6314
vn 0.0761 0.9951 -0.0625
vn 0.0761 -0.9951 -0.0625
vn 0.7693 -0.0975 -0.6314
vn 0.2254 0.9565 -0.1850
vn 0.7400 -0.2890 -0.6073
vn 0.3658 0.8810 -0.3002
vn 0.6825 -0.4696 -0.5601
vn 0.4918 0.7715 -0.4036
vn 0.5987 -0.6326 -0.4913
vn 0.8777 -0.0975 -0.4691
vn 0.2571 0.9565 -0.1374
vn 0.8443 -0.2890 -0.4513
vn 0.4173 0.8810 -0.2230
vn 0.7786 -0.4696 -0.4162
vn 0.5611 0.7715 -0.2999
vn 0.6831 -0.6326 -0.3651
vn 0.6831 0.6326 -0.3651
vn 0.5611 -0.7715 -0.2999
vn 0.7786 0.4696 -0.4162
vn 0.4173 -0.8810 -0.2230
vn 0.8443 0.2890 -0.4513
vn 0.2571 -0.9565 -0.1374
vn 0.8777 0.0975 -0.4691
vn 0.0869 0.9951 -0.0464
vn 0.0869 -0.9951 -0.0464
vn 0.6088 -0.7715 -0.1847
vn 0.8448 0.4696 -0.2563
vn 0.4528 -0.8810 -0.1374
vn 0.9161 0.2890 -0.2779
vn 0.2790 -0.9565 -0.0846
vn 0.9524 0.0975 -0.2889
vn 0.0942 0.9951 -0.0286
vn 0.0942 -0.9951 -0.0286
vn 0.9524 -0.0975 -0.2889
vn 0.2790 0.9565 -0.0846
vn 0.9161 -0.2890 -0.2779
vn 0.4528 0.8810 -0.1374
vn 0.8448 -0.4696 -0.2563
vn 0.6088 0.7715 -0.1847
vn 0.7412 -0.6326 -0.2248
vn 0.7412 0.6326 -0.2248
vn 0.2902 0.9565 -0.0286
vn 0.9527 -0.2890 -0.0938
vn 0.4709 0.8810 -0.0464
vn 0.8786 -0.4696 -0.0865
vn 0.6332 0.7715 -0.0624
vn 0.7708 -0.6326 -0.0759
vn 0.7708 0.6326 -0.0759
vn 0.6332 -0.7715 -0.0624
vn 0.8786 0.4696 -0.0865
vn 0.4709 -0.8810 -0.0464
vn 0.9527 0.2890 -0.0938
vn 0.2902 -0.9565 -0.0286
vn 0.9904 0.0975 -0.0975
vn 0.0980 0.9951 -0.0097
vn 0.0980 -0.9951 -0.0097
vn 0.9904 -0.0975 -0.0975
vn 0.8786 0.4696 0.0865
vn 0.4709 -0.8810 0.0464
vn 0.9527 0.2890 0.0938
vn 0.2902 -0.9565 0.0286
vn 0.9904 0.0975 0.0976
vn 0.0980 0.9951 0.0097
vn 0.0980 -0.9951 0.0097
vn 0.9904 -0.0975 0.0976
vn 0.2902 0.9565 0.0286
vn 0.9527 -0.2890 0.0938
vn 0.4709 0.8810 0.0464
vn 0.8786 -0.4696 0.0865
vn 0.6332 0.7715 0.0624
vn 0.7708 -0.6326 0.0759
vn 0.7708 0.6326 0.0759
vn 0.6332 -0.7715 0.0624
vn 0.9161 -0.2890 0.2779
vn 0.4528 0.8810 0.1374
vn 0.8448 -0.4696 0.2563
vn 0.6088 0.7715 0.1847
vn 0.7412 -0.6326 0.2248
vn 0.7412 0.6326 0.2248
vn 0.6088 -0.7715 0.1847
vn 0.8448 0.4696 0.2563
vn 0.4528 -0.8810 0.1374
vn 0.9161 0.2890 0.2779
vn 0.2790 -0.9565 0.0846
vn 0.9524 0.0975 0.2889
vn 0.0942 0.9951 0.0286
vn 0.0942 -0.9951 0.0286
vn 0.9524 -0.0975 0.2889
vn 0.2790 0.9565 0.0846
vn 0.4173 -0.8810 0.2230
vn 0.8443 0.2890 0.4513
vn 0.2571 -0.9565 0.1374
vn 0.8777 0.0975 0.4691
vn 0.0869 0.9951 0.0464
vn 0.0869 -0.9951 0.0464
vn 0.8777 -0.0975 0.4691
vn 0.2571 0.9565 0.1374
vn 0.8443 -0.2890 0.4513
vn 0.4173 0.8810 0.2230
vn 0.7786 -0.4696 0.4162
vn 0.5611 0.7715 0.2999
vn 0.6831 -0.6326 0.3651
vn 0.6831 0.6326 0.3651
vn 0.5611 -0.7715 0.2999
vn 0.7786 0.4696 0.4162
vn 0.6825 -0.4696 0.5601
vn 0.4918 0.7715 0.4036
vn 0.5987 -0.6326 0.4913
vn 0.5987 0.6326 0.4913
vn 0.4918 -0.7715 0.4036
vn 0.6825 0.4696 0.5601
vn 0.3658 -0.8810 0.3002
vn 0.7400 0.2890 0.6073
vn 0.2254 -0.9565 0.1850
vn 0.7693 0.0975 0.6314
vn 0.0761 0.9951 0.0625
vn 0.0761 -0.9951 0.0625
vn 0.7693 -0.0975 0.6314
vn 0.2254 0.9565 0.1850
vn 0.7400 -0.2890 0.6073
vn 0.3658 0.8810 0.3002
vn 0.1850 -0.9565 0.2254
vn 0.6314 0.0975 0.7693
vn 0.0625 0.9951 0.0761
vn 0.0625 -0.9951 0.0761
vn 0.6314 -0.0975 0.7693
vn 0.1850 0.9565 0.2254
vn 0.6073 -0.2890 0.7400
vn 0.3002 0.8810 0.3658
vn 0.5601 -0.4696 0.6825
vn 0.4036 0.7715 0.4918
vn 0.4913 -0.6326 0.5987
vn 0.4913 0.6326 0.5987
vn 0.4036 -0.7715 0.4918
vn 0.5601 0.4696 0.6825
vn 0.3002 -0.8810 0.3658
vn 0.6073 0.2890 0.7400
vn 0.2999 0.7715 0.5611
vn 0.3651 -0.6326 0.6831
vn 0.3651 0.6326 0.6831
vn 0.2999 -0.7715 0.5611
vn 0.4162 0.4696 0.7786
vn 0.2230 -0.8810 0.4173
vn 0.4513 0.2890 0.8443
vn 0.1374 -0.9565 0.2571
vn 0.4691 0.0975 0.8777
vn 0.0464 0.9951 0.0869
vn 0.0464 -0.9951 0.0869
vn 0.4691 -0.0975 0.8777
vn 0.1374 0.9565 0.2571
vn 0.4513 -0.2890 0.8443
vn 0.2230 0.8810 0.4173
vn 0.4162 -0.4696 0.7786
vn 0.2889 0.0975 0.9524
vn 0.0286 0.9951 0.0942
vn 0.0286 -0.9951 0.0942
vn 0.2889 -0.0975 0.9524
vn 0.0846 0.9565 0.2790
vn 0.2779 -0.2890 0.9161
vn 0.1374 0.8810 0.4528
vn 0.2563 -0.4696 0.8448
vn 0.1847 0.7715 0.6088
vn 0.2248 -0.6326 0.7412
vn 0.2248 0.6326 0.7412
vn 0.1847 -0.7715 0.6088
vn 0.2563 0.4696 0.8448
vn 0.1374 -0.8810 0.4528
vn 0.2779 0.2890 0.9161
vn 0.0846 -0.9565 0.2790
vn 0.0759 -0.6326 0.7708
vn 0.0759 0.6326 0.7708
vn 0.0624 -0.7715 0.6332
vn 0.0865 0.4696 0.8786
vn 0.0464 -0.8810 0.4709
vn 0.0938 0.2890 0.9527
vn 0.0286 -0.9565 0.2902
vn 0.0975 0.0975 0.9904
vn 0.0097 0.9951 0.0980
vn 0.0097 -0.9951 0.0980
vn 0.0975 -0.0975 0.9904
vn 0.0286 0.9565 0.2902
vn 0.0938 -0.2890 0.9527
vn 0.0464 0.8810 0.4709
vn 0.0865 -0.4696 0.8786
vn 0.0624 0.7715 0.6332
vn -0.0097 0.9951 0.0980
vn -0.0097 -0.9951 0.0980
vn -0.0976 -0.0975 0.9904
vn -0.0286 0.9565 0.2902
vn -0.0938 -0.2890 0.9527
vn -0.0464 0.8810 0.4709
vn -0.0865 -0.4696 0.8786
vn -0.0624 0.7715 0.6332
vn -0.0759 -0.6326 0.7708
vn -0.0759 0.6326 0.7708
vn -0.0624 -0.7715 0.6332
vn -0.0865 0.4696 0.8786
vn -0.0464 -0.8810 0.4709
vn -0.0938 0.2890 0.9527
vn -0.0286 -0.9565 0.2902
vn -0.0976 0.0975 0.9904
vn -0.2248 0.6326 0.7412
vn -0.1847 -0.7715 0.6088
vn -0.2563 0.4696 0.8448
vn -0.1374 -0.8810 0.4528
vn -0.2779 0.2890 0.9161
vn -0.0846 -0.9565 0.2790
vn -0.2889 0.0975 0.9524
vn -0.0286 0.9951 0.0942
vn -0.0286 -0.9951 0.0942
vn -0.2889 -0.0975 0.9524
vn -0.0846 0.9565 0.2790
vn -0.2779 -0.2890 0.9161
vn -0.1374 0.8810 0.4528
vn -0.2563 -0.4696 0.8448
vn -0.1847 0.7715 0.6088
vn -0.2248 -0.6326 0.7412
vn -0.4691 -0.0975 0.8777
vn -0.1374 0.9565 0.2571
vn -0.4513 -0.2890 0.8443
vn -0.2230 0.8810 0.4173
vn -0.4162 -0.4696 0.7786
vn -0.2999 0.7715 0.5611
vn -0.3651 -0.6326 0.6831
vn -0.3651 0.6326 0.6831
vn -0.2999 -0.7715 0.5611
vn -0.4162 0.4696 0.7786
vn -0.2230 -0.8810 0.4173
vn -0.4513 0.2890 0.8443
vn -0.1374 -0.9565 0.2571
vn -0.4691 0.0975 0.8777
vn -0.0464 0.9951 0.0869
vn -0.0464 -0.9951 0.0869
vn -0.4036 -0.7715 0.4918
vn -0.5601 0.4696 0.6825
vn -0.3002 -0.8810 0.3658
vn -0.6073 0.2890 0.7400
vn -0.1850 -0.9565 0.2254
vn -0.6314 0.0975 0.7693
vn -0.0625 0.9951 0.0761
vn -0.0625 -0.9951 0.0761
vn -0.6314 -0.0975 0.7693
vn -0.1850 0.9565 0.2254
vn -0.6073 -0.2890 0.7400
vn -0.3002 0.8810 0.3658
vn -0.5601 -0.4696 0.6825
vn -0.4036 0.7715 0.4918
vn -0.4913 -0.6326 0.5987
vn -0.4913 0.6326 0.5987
vn -0.7400 -0.2890 0.6073
vn -0.3658 0.8810 0.3002
vn -0.6825 -0.4696 0.5601
vn -0.4918 0.7715 0.4036
vn -0.5987 -0.6326 0.4913
vn -0.5987 0.6326 0.4913
vn -0.4918 -0.7715 0.4036
vn -0.6825 0.4696 0.5601
vn -0.3658 -0.8810 0.3002
vn -0.7400 0.2890 0.6073
vn -0.2254 -0.9565 0.1850
vn -0.7693 0.0975 0.6314
vn -0.0761 0.9951 0.0625
vn -0.0761 -0.9951 0.0625
vn -0.7693 -0.0975 0.6314
vn -0.2254 0.9565 0.1850
vn -0.4173 -0.8810 0.2230
vn -0.8443 0.2890 0.4513
vn -0.2571 -0.9565 0.1374
vn -0.8777 0.0975 0.4691
vn -0.0869 0.9951 0.0464
vn -0.0869 -0.9951 0.0464
vn -0.8777 -0.0975 0.4691
vn -0.2571 0.9565 0.1374
vn -0.8443 -0.2890 0.4513
vn -0.4173 0.8810 0.2230
vn -0.7786 -0.4696 0.4162
vn -0.5611 0.7715 0.2999
vn -0.6831 -0.6326 0.3651
vn -0.6831 0.6326 0.3651
vn -0.5611 -0.7715 0.2999
vn -0.7786 0.4696 0.4162
vn -0.4528 0.8810 0.1374
vn -0.8448 -0.4696 0.2563
vn -0.6088 0.7715 0.1847
vn -0.7412 -0.6326 0.2248
vn -0.7412 0.6326 0.2248
vn -0.6088 -0.7715 0.1847
vn -0.8448 0.4696 0.2563
vn -0.4528 -0.8810 0.1374
vn -0.9161 0.2890 0.2779
vn -0.2790 -0.9565 0.0846
vn -0.9524 0.0975 0.2889
vn -0.0942 0.9951 0.0286
vn -0.0942 -0.9951 0.0286
vn -0.9524 -0.0975 0.2889
vn -0.2790 0.9565 0.0846
vn -0.9161 -0.2890 0.2779
vn -0.9527 0.2890 0.0938
vn -0.2902 -0.9565 0.0286
vn -0.9904 0.0975 0.0975
vn -0.0980 0.9951 0.0097
vn -0.0980 -0.9951 0.0097
vn -0.9904 -0.0975 0.0975
vn -0.2902 0.9565 0.0286
vn -0.9527 -0.2890 0.0938
vn -0.4709 0.8810 0.0464
vn -0.8786 -0.4696 0.0865
vn -0.6332 0.7715 0.0624
vn -0.7708 -0.6326 0.0759
vn -0.7708 0.6326 0.0759
vn -0.6332 -0.7715 0.0624
vn -0.8786 0.4696 0.0865
vn -0.4709 -0.8810 0.0464
vn -0.8786 -0.4696 -0.0865
vn -0.6332 0.7715 -0.0624
vn -0.7708 -0.6326 -0.0759
vn -0.7708 0.6326 -0.0759
vn -0.6332 -0.7715 -0.0624
vn -0.8786 0.4696 -0.0865
vn -0.4709 -0.8810 -0.0464
vn -0.9527 0.2890 -0.0938
vn -0.2902 -0.9565 -0.0286
vn -0.9904 0.0975 -0.0976
vn -0.0980 0.9951 -0.0097
vn -0.0980 -0.9951 -0.0097
vn -0.9904 -0.0975 -0.0976
vn -0.2902 0.9565 -0.0286
vn -0.9527 -0.2890 -0.0938
vn -0.4709 0.8810 -0.0464
vn -0.2790 -0.9565 -0.0846
vn -0.9524 0.0975 -0.2889
vn -0.0942 0.9951 -0.0286
vn -0.0942 -0.9951 -0.0286
vn -0.9524 -0.0975 -0.2889
vn -0.2790 0.9565 -0.0846
vn -0.9161 -0.2890 -0.2779
vn -0.4528 0.8810 -0.1374
vn -0.8448 -0.4696 -0.2563
vn -0.6088 0.7715 -0.1847
vn -0.7412 -0.6326 -0.2248
vn -0.7412 0.6326 -0.2248
vn -0.6088 -0.7715 -0.1847
vn -0.8448 0.4696 -0.2563
vn -0.4528 -0.8810 -0.1374
vn -0.9161 0.2890 -0.2779
vn -0.5611 0.7715 -0.2999
vn -0.6831 -0.6326 -0.3651
vn -0.6831 0.6326 -0.3651
vn -0.5611 -0.7715 -0.2999
vn -0.7786 0.4696 -0.4162
vn -0.4173 -0.8810 -0.2231
vn -0.8443 0.2890 -0.4513
vn -0.2571 -0.9565 -0.1374
vn -0.8777 0.0975 -0.4691
vn -0.0869 0.9951 -0.0464
vn -0.0869 -0.9951 -0.0464
vn -0.8777 -0.0975 -0.4691
vn -0.2571 0.9565 -0.1374
vn -0.8443 -0.2890 -0.4513
vn -0.4173 0.8810 -0.2231
vn -0.7786 -0.4696 -0.4162
vn -0.7693 0.0975 -0.6314
vn -0.0761 0.9951 -0.0625
vn -0.0761 -0.9951 -0.0625
vn -0.7693 -0.0975 -0.6314
vn -0.2254 0.9565 -0.1850
vn -0.7400 -0.2890 -0.6073
vn -0.3658 0.8810 -0.3002
vn -0.6825 -0.4696 -0.5601
vn -0.4918 0.7715 -0.4036
vn -0.5987 -0.6326 -0.4913
vn -0.5987 0.6326 -0.4913
vn -0.4918 -0.7715 -0.4036
vn -0.6825 0.4696 -0.5601
vn -0.3658 -0.8810 -0.3002
vn -0.7400 0.2890 -0.6073
vn -0.2254 -0.9565 -0.1850
vn -0.4913 -0.6326 -0.5987
vn -0.4913 0.6326 -0.5987
vn -0.4036 -0.7715 -0.4918
vn -0.5601 0.4696 -0.6825
vn -0.3002 -0.8810 -0.3658
vn -0.6073 0.2890 -0.7400
vn -0.1850 -0.9565 -0.2254
vn -0.6314 0.0975 -0.7693
vn -0.0625 0.9951 -0.0761
vn -0.0625 -0.9951 -0.0761
vn -0.6314 -0.0975 -0.7693
vn -0.1850 0.9565 -0.2254
vn -0.6073 -0.2890 -0.7400
vn -0.3002 0.8810 -0.3658
vn -0.5601 -0.4696 -0.6825
vn -0.4036 0.7715 -0.4918
vn -0.0464 -0.9951 -0.0869
vn -0.4691 -0.0975 -0.8777
vn -0.1374 0.9565 -0.2571
vn -0.4513 -0.2890 -0.8443
vn -0.2230 0.8810 -0.4173
vn -0.4162 -0.4696 -0.7786
vn -0.2999 0.7715 -0.5611
vn -0.3651 -0.6326 -0.6831
vn -0.3651 0.6326 -0.6831
vn -0.2999 -0.7715 -0.5611
vn -0.4162 0.4696 -0.7786
vn -0.2230 -0.8810 -0.4173
vn -0.4513 0.2890 -0.8443
vn -0.1374 -0.9565 -0.2571
vn -0.4691 0.0975 -0.8777
vn -0.0464 0.9951 -0.0869
vn -0.1847 -0.7715 -0.6088
vn -0.2563 0.4696 -0.8448
vn -0.1374 -0.8810 -0.4528
vn -0.2779 0.2890 -0.9161
vn -0.0846 -0.9565 -0.2790
vn -0.2889 0.0975 -0.9524
vn -0.0286 0.9951 -0.0942
vn -0.0286 -0.9951 -0.0942
vn -0.2889 -0.0975 -0.9524
vn -0.0846 0.9565 -0.2790
vn -0.2779 -0.2890 -0.9161
vn -0.1374 0.8810 -0.4528
vn -0.2563 -0.4696 -0.8448
vn -0.1847 0.7715 -0.6088
vn -0.2248 -0.6326 -0.7412
vn -0.2248 0.6326 -0.7412
vn -0.0286 0.9565 -0.2902
vn -0.0938 -0.2890 -0.9527
vn -0.0464 0.8810 -0.4709
vn -0.0865 -0.4696 -0.8786
vn -0.0624 0.7715 -0.6332
vn -0.0759 -0.6326 -0.7708
vn -0.0759 0.6326 -0.7708
vn -0.0624 -0.7715 -0.6332
vn -0.0865 0.4696 -0.8786
vn -0.0464 -0.8810 -0.4709
vn -0.0938 0.2890 -0.9527
vn -0.0286 -0.9565 -0.2902
vn -0.0976 0.0975 -0.9904
vn -0.0097 0.9951 -0.0980
vn -0.0097 -0.9951 -0.0980
vn -0.0976 -0.0975 -0.9904
vt 0.750000 0.437500
vt 0.750000 0.500000
vt 0.718750 0.500000
vt 0.718750 0.437500
vt 0.750000 0.875000
vt 0.750000 0.937500
vt 0.718750 0.937500
vt 0.718750 0.875000
vt 0.750000 0.375000
vt 0.718750 0.375000
vt 0.750000 0.812500
vt 0.718750 0.812500
vt 0.750000 0.312500
vt 0.718750 0.312500
vt 0.750000 0.750000
vt 0.718750 0.750000
vt 0.750000 0.250000
vt 0.718750 0.250000
vt 0.750000 0.687500
vt 0.718750 0.687500
vt 0.750000 0.187500
vt 0.718750 0.187500
vt 0.750000 0.625000
vt 0.718750 0.625000
vt 0.750000 0.125000
vt 0.718750 0.125000
vt 0.750000 0.562500
vt 0.718750 0.562500
vt 0.750000 0.062500
vt 0.718750 0.062500
vt 0.734375 1.000000
vt 0.734375 0.000000
vt 0.687500 0.125000
vt 0.687500 0.062500
vt 0.687500 0.562500
vt 0.687500 0.500000
vt 0.703125 1.000000
vt 0.687500 0.937500
vt 0.703125 0.000000
vt 0.687500 0.437500
vt 0.687500 0.875000
vt 0.687500 0.375000
vt 0.687500 0.812500
vt 0.687500 0.312500
vt 0.687500 0.750000
vt 0.687500 0.250000
vt 0.687500 0.687500
vt 0.687500 0.187500
vt 0.687500 0.625000
vt 0.656250 0.312500
vt 0.656250 0.250000
vt 0.656250 0.750000
vt 0.656250 0.687500
vt 0.656250 0.187500
vt 0.656250 0.625000
vt 0.656250 0.125000
vt 0.656250 0.562500
vt 0.656250 0.062500
vt 0.656250 0.500000
vt 0.671875 1.000000
vt 0.656250 0.937500
vt 0.671875 0.000000
vt 0.656250 0.437500
vt 0.656250 0.875000
vt 0.656250 0.375000
vt 0.656250 0.812500
vt 0.640625 1.000000
vt 0.625000 0.937500
vt 0.640625 0.000000
vt 0.625000 0.062500
vt 0.625000 0.500000
vt 0.625000 0.437500
vt 0.625000 0.875000
vt 0.625000 0.375000
vt 0.625000 0.812500
vt 0.625000 0.312500
vt 0.625000 0.750000
vt 0.625000 0.250000
vt 0.625000 0.687500
vt 0.625000 0.187500
vt 0.625000 0.625000
vt 0.625000 0.125000
vt 0.625000 0.562500
vt 0.593750 0.750000
vt 0.593750 0.687500
vt 0.593750 0.250000
vt 0.593750 0.187500
vt 0.593750 0.625000
vt 0.593750 0.125000
vt 0.593750 0.562500
vt 0.593750 0.062500
vt 0.593750 0.500000
vt 0.609375 1.000000
vt 0.593750 0.937500
vt 0.609375 0.000000
vt 0.593750 0.437500
vt 0.593750 0.875000
vt 0.593750 0.375000
vt 0.593750 0.812500
vt 0.593750 0.312500
vt 0.562500 0.500000
vt 0.562500 0.437500
vt 0.562500 0.937500
vt 0.562500 0.875000
vt 0.562500 0.375000
vt 0.562500 0.812500
vt 0.562500 0.312500
vt 0.562500 0.750000
vt 0.562500 0.250000
vt 0.562500 0.687500
vt 0.562500 0.187500
vt 0.562500 0.625000
vt 0.562500 0.125000
vt 0.562500 0.562500
vt 0.562500 0.062500
vt 0.578125 1.000000
vt 0.578125 0.000000
vt 0.531250 0.250000
vt 0.531250 0.187500
vt 0.531250 0.687500
vt 0.531250 0.625000
vt 0.531250 0.125000
vt 0.531250 0.562500
vt 0.531250 0.062500
vt 0.531250 0.500000
vt 0.546875 1.000000
vt 0.531250 0.937500
vt 0.546875 0.000000
vt 0.531250 0.437500
vt 0.531250 0.875000
vt 0.531250 0.375000
vt 0.531250 0.812500
vt 0.531250 0.312500
vt 0.531250 0.750000
vt 0.500000 0.937500
vt 0.500000 0.875000
vt 0.500000 0.437500
vt 0.500000 0.375000
vt 0.500000 0.812500
vt 0.500000 0.312500
vt 0.500000 0.750000
vt 0.500000 0.250000
vt 0.500000 0.687500
vt 0.500000 0.187500
vt 0.500000 0.625000
vt 0.500000 0.125000
vt 0.500000 0.562500
vt 0.500000 0.062500
vt 0.500000 0.500000
vt 0.515625 1.000000
vt 0.515625 0.000000
vt 0.468750 0.687500
vt 0.468750 0.625000
vt 0.468750 0.187500
vt 0.468750 0.125000
vt 0.468750 0.562500
vt 0.468750 0.062500
vt 0.468750 0.500000
vt 0.484375 1.000000
vt 0.468750 0.937500
vt 0.484375 0.000000
vt 0.468750 0.437500
vt 0.468750 0.875000
vt 0.468750 0.375000
vt 0.468750 0.812500
vt 0.468750 0.312500
vt 0.468750 0.750000
vt 0.468750 0.250000
vt 0.437500 0.437500
vt 0.437500 0.375000
vt 0.437500 0.875000
vt 0.437500 0.812500
vt 0.437500 0.312500
vt 0.437500 0.750000
vt 0.437500 0.250000
vt 0.437500 0.687500
vt 0.437500 0.187500
vt 0.437500 0.625000
vt 0.437500 0.125000
vt 0.437500 0.562500
vt 0.437500 0.062500
vt 0.437500 0.500000
vt 0.453125 1.000000
vt 0.437500 0.937500
vt 0.453125 0.000000
vt 0.406250 0.187500
vt 0.406250 0.125000
vt 0.406250 0.625000
vt 0.406250 0.562500
vt 0.406250 0.062500
vt 0.406250 0.500000
vt 0.421875 1.000000
vt 0.406250 0.937500
vt 0.421875 0.000000
vt 0.406250 0.437500
vt 0.406250 0.875000
vt 0.406250 0.375000
vt 0.406250 0.812500
vt 0.406250 0.312500
vt 0.406250 0.750000
vt 0.406250 0.250000
vt 0.406250 0.687500
vt 0.375000 0.375000
vt 0.375000 0.312500
vt 0.375000 0.812500
vt 0.375000 0.750000
vt 0.375000 0.250000
vt 0.375000 0.687500
vt 0.375000 0.187500
vt 0.375000 0.625000
vt 0.375000 0.125000
vt 0.375000 0.562500
vt 0.375000 0.062500
vt 0.375000 0.500000
vt 0.390625 1.000000
vt 0.375000 0.937500
vt 0.390625 0.000000
vt 0.375000 0.437500
vt 0.375000 0.875000
vt 0.343750 0.125000
vt 0.343750 0.062500
vt 0.343750 0.562500
vt 0.343750 0.500000
vt 0.359375 1.000000
vt 0.343750 0.937500
vt 0.359375 0.000000
vt 0.343750 0.437500
vt 0.343750 0.875000
vt 0.343750 0.375000
vt 0.343750 0.812500
vt 0.343750 0.312500
vt 0.343750 0.750000
vt 0.343750 0.250000
vt 0.343750 0.687500
vt 0.343750 0.187500
vt 0.343750 0.625000
vt 0.312500 0.812500
vt 0.312500 0.750000
vt 0.312500 0.312500
vt 0.312500 0.250000
vt 0.312500 0.687500
vt 0.312500 0.187500
vt 0.312500 0.625000
vt 0.312500 0.125000
vt 0.312500 0.562500
vt 0.312500 0.062500
vt 0.312500 0.500000
vt 0.328125 1.000000
vt 0.312500 0.937500
vt 0.328125 0.000000
vt 0.312500 0.437500
vt 0.312500 0.875000
vt 0.312500 0.375000
vt 0.281250 0.562500
vt 0.281250 0.500000
vt 0.296875 1.000000
vt 0.281250 0.937500
vt 0.296875 0.000000
vt 0.281250 0.062500
vt 0.281250 0.437500
vt 0.281250 0.875000
vt 0.281250 0.375000
vt 0.281250 0.812500
vt 0.281250 0.312500
vt 0.281250 0.750000
vt 0.281250 0.250000
vt 0.281250 0.687500
vt 0.281250 0.187500
vt 0.281250 0.625000
vt 0.281250 0.125000
vt 0.250000 0.312500
vt 0.250000 0.250000
vt 0.250000 0.750000
vt 0.250000 0.687500
vt 0.250000 0.187500
vt 0.250000 0.625000
vt 0.250000 0.125000
vt 0.250000 0.562500
vt 0.250000 0.062500
vt 0.250000 0.500000
vt 0.265625 1.000000
vt 0.250000 0.937500
vt 0.265625 0.000000
vt 0.250000 0.437500
vt 0.250000 0.875000
vt 0.250000 0.375000
vt 0.250000 0.812500
vt 0.234375 1.000000
vt 0.218750 0.937500
vt 0.234375 0.000000
vt 0.218750 0.062500
vt 0.218750 0.500000
vt 0.218750 0.437500
vt 0.218750 0.875000
vt 0.218750 0.375000
vt 0.218750 0.812500
vt 0.218750 0.312500
vt 0.218750 0.750000
vt 0.218750 0.250000
vt 0.218750 0.687500
vt 0.218750 0.187500
vt 0.218750 0.625000
vt 0.218750 0.125000
vt 0.218750 0.562500
vt 0.187500 0.750000
vt 0.187500 0.687500
vt 0.187500 0.250000
vt 0.187500 0.187500
vt 0.187500 0.625000
vt 0.187500 0.125000
vt 0.187500 0.562500
vt 0.187500 0.062500
vt 0.187500 0.500000
vt 0.203125 1.000000
vt 0.187500 0.937500
vt 0.203125 0.000000
vt 0.187500 0.437500
vt 0.187500 0.875000
vt 0.187500 0.375000
vt 0.187500 0.812500
vt 0.187500 0.312500
vt 0.156250 0.500000
vt 0.156250 0.437500
vt 0.156250 0.937500
vt 0.156250 0.875000
vt 0.156250 0.375000
vt 0.156250 0.812500
vt 0.156250 0.312500
vt 0.156250 0.750000
vt 0.156250 0.250000
vt 0.156250 0.687500
vt 0.156250 0.187500
vt 0.156250 0.625000
vt 0.156250 0.125000
vt 0.156250 0.562500
vt 0.156250 0.062500
vt 0.171875 1.000000
vt 0.171875 0.000000
vt 0.125000 0.250000
vt 0.125000 0.187500
vt 0.125000 0.687500
vt 0.125000 0.625000
vt 0.125000 0.125000
vt 0.125000 0.562500
vt 0.125000 0.062500
vt 0.125000 0.500000
vt 0.140625 1.000000
vt 0.125000 0.937500
vt 0.140625 0.000000
vt 0.125000 0.437500
vt 0.125000 0.875000
vt 0.125000 0.375000
vt 0.125000 0.812500
vt 0.125000 0.312500
vt 0.125000 0.750000
vt 0.093750 0.437500
vt 0.093750 0.375000
vt 0.093750 0.875000
vt 0.093750 0.812500
vt 0.093750 0.312500
vt 0.093750 0.750000
vt 0.093750 0.250000
vt 0.093750 0.687500
vt 0.093750 0.187500
vt 0.093750 0.625000
vt 0.093750 0.125000
vt 0.093750 0.562500
vt 0.093750 0.062500
vt 0.093750 0.500000
vt 0.109375 1.000000
vt 0.093750 0.937500
vt 0.109375 0.000000
vt 0.062500 0.187500
vt 0.062500 0.125000
vt 0.062500 0.625000
vt 0.062500 0.562500
vt 0.062500 0.062500
vt 0.062500 0.500000
vt 0.078125 1.000000
vt 0.062500 0.937500
vt 0.078125 0.000000
vt 0.062500 0.437500
vt 0.062500 0.875000
vt 0.062500 0.375000
vt 0.062500 0.812500
vt 0.062500 0.312500
vt 0.062500 0.750000
vt 0.062500 0.250000
vt 0.062500 0.687500
vt 0.031250 0.875000
vt 0.031250 0.812500
vt 0.031250 0.375000
vt 0.031250 0.312500
vt 0.031250 0.750000
vt 0.031250 0.250000
vt 0.031250 0.687500
vt 0.031250 0.187500
vt 0.031250 0.625000
vt 0.031250 0.125000
vt 0.031250 0.562500
vt 0.031250 0.062500
vt 0.031250 0.500000
vt 0.046875 1.000000
vt 0.031250 0.937500
vt 0.046875 0.000000
vt 0.031250 0.437500
vt 0.000000 0.625000
vt 0.000000 0.562500
vt 0.000000 0.125000
vt 0.000000 0.062500
vt 0.000000 0.500000
vt 0.015625 1.000000
vt 0.000000 0.937500
vt 0.015625 0.000000
vt 0.000000 0.437500
vt 0.000000 0.875000
vt 0.000000 0.375000
vt 0.000000 0.812500
vt 0.000000 0.312500
vt 0.000000 0.750000
vt 0.000000 0.250000
vt 0.000000 0.687500
vt 0.000000 0.187500
vt 1.000000 0.312500
vt 1.000000 0.375000
vt 0.968750 0.375000
vt 0.968750 0.312500
vt 1.000000 0.750000
vt 1.000000 0.812500
vt 0.968750 0.812500
vt 0.968750 0.750000
vt 1.000000 0.250000
vt 0.968750 0.250000
vt 1.000000 0.687500
vt 0.968750 0.687500
vt 1.000000 0.187500
vt 0.968750 0.187500
vt 1.000000 0.625000
vt 0.968750 0.625000
vt 1.000000 0.125000
vt 0.968750 0.125000
vt 1.000000 0.562500
vt 0.968750 0.562500
vt 1.000000 0.062500
vt 0.968750 0.062500
vt 1.000000 0.500000
vt 0.968750 0.500000
vt 1.000000 0.937500
vt 0.984375 1.000000
vt 0.968750 0.937500
vt 0.984375 0.000000
vt 1.000000 0.437500
vt 0.968750 0.437500
vt 1.000000 0.875000
vt 0.968750 0.875000
vt 0.937500 0.125000
vt 0.937500 0.062500
vt 0.937500 0.562500
vt 0.937500 0.500000
vt 0.953125 1.000000
vt 0.937500 0.937500
vt 0.953125 0.000000
vt 0.937500 0.437500
vt 0.937500 0.875000
vt 0.937500 0.375000
vt 0.937500 0.812500
vt 0.937500 0.312500
vt 0.937500 0.750000
vt 0.937500 0.250000
vt 0.937500 0.687500
vt 0.937500 0.187500
vt 0.937500 0.625000
vt 0.906250 0.812500
vt 0.906250 0.750000
vt 0.906250 0.312500
vt 0.906250 0.250000
vt 0.906250 0.687500
vt 0.906250 0.187500
vt 0.906250 0.625000
vt 0.906250 0.125000
vt 0.906250 0.562500
vt 0.906250 0.062500
vt 0.906250 0.500000
vt 0.921875 1.000000
vt 0.906250 0.937500
vt 0.921875 0.000000
vt 0.906250 0.437500
vt 0.906250 0.875000
vt 0.906250 0.375000
vt 0.875000 0.562500
vt 0.875000 0.500000
vt 0.890625 1.000000
vt 0.875000 0.937500
vt 0.890625 0.000000
vt 0.875000 0.062500
vt 0.875000 0.437500
vt 0.875000 0.875000
vt 0.875000 0.375000
vt 0.875000 0.812500
vt 0.875000 0.312500
vt 0.875000 0.750000
vt 0.875000 0.250000
vt 0.875000 0.687500
vt 0.875000 0.187500
vt 0.875000 0.625000
vt 0.875000 0.125000
vt 0.843750 0.312500
vt 0.843750 0.250000
vt 0.843750 0.750000
vt 0.843750 0.687500
vt 0.843750 0.187500
vt 0.843750 0.625000
vt 0.843750 0.125000
vt 0.843750 0.562500
vt 0.843750 0.062500
vt 0.843750 0.500000
vt 0.859375 1.000000
vt 0.843750 0.937500
vt 0.859375 0.000000
vt 0.843750 0.437500
vt 0.843750 0.875000
vt 0.843750 0.375000
vt 0.843750 0.812500
vt 0.828125 0.000000
vt 0.812500 0.062500
vt 0.812500 0.500000
vt 0.812500 0.437500
vt 0.812500 0.937500
vt 0.812500 0.875000
vt 0.812500 0.375000
vt 0.812500 0.812500
vt 0.812500 0.312500
vt 0.812500 0.750000
vt 0.812500 0.250000
vt 0.812500 0.687500
vt 0.812500 0.187500
vt 0.812500 0.625000
vt 0.812500 0.125000
vt 0.812500 0.562500
vt 0.828125 1.000000
vt 0.781250 0.250000
vt 0.781250 0.187500
vt 0.781250 0.687500
vt 0.781250 0.625000
vt 0.781250 0.125000
vt 0.781250 0.562500
vt 0.781250 0.062500
vt 0.781250 0.500000
vt 0.796875 1.000000
vt 0.781250 0.937500
vt 0.796875 0.000000
vt 0.781250 0.437500
vt 0.781250 0.875000
vt 0.781250 0.375000
vt 0.781250 0.812500
vt 0.781250 0.312500
vt 0.781250 0.750000
vt 0.765625 1.000000
vt 0.765625 0.000000
s 0
f 6/1/1 5/2/1 16/3/1 17/4/1
f 475/5/2 474/6/2 9/7/2 10/8/2
f 478/9/3 6/1/3 17/4/3 18/10/3
f 2/11/4 475/5/4 10/8/4 11/12/4
f 7/13/5 478/9/5 18/10/5 19/14/5
f 476/15/6 2/11/6 11/12/6 12/16/6
f 479/17/7 7/13/7 19/14/7 20/18/7
f 3/19/8 476/15/8 12/16/8 13/20/8
f 480/21/9 479/17/9 20/18/9 21/22/9
f 477/23/10 3/19/10 13/20/10 14/24/10
f 481/25/11 480/21/11 21/22/11 22/26/11
f 4/27/12 477/23/12 14/24/12 15/28/12
f 482/29/13 481/25/13 22/26/13 23/30/13
f 5/2/14 4/27/14 15/28/14 16/3/14
f 474/6/15 1/31/15 9/7/15
f 8/32/16 482/29/16 23/30/16
f 23/30/17 22/26/17 37/33/17 38/34/17
f 16/3/18 15/28/18 30/35/18 31/36/18
f 9/7/19 1/37/19 24/38/19
f 8/39/20 23/30/20 38/34/20
f 17/4/21 16/3/21 31/36/21 32/40/21
f 10/8/22 9/7/22 24/38/22 25/41/22
f 18/10/23 17/4/23 32/40/23 33/42/23
f 11/12/24 10/8/24 25/41/24 26/43/24
f 19/14/25 18/10/25 33/42/25 34/44/25
f 12/16/26 11/12/26 26/43/26 27/45/26
f 20/18/27 19/14/27 34/44/27 35/46/27
f 13/20/28 12/16/28 27/45/28 28/47/28
f 21/22/29 20/18/29 35/46/29 36/48/29
f 14/24/30 13/20/30 28/47/30 29/49/30
f 22/26/31 21/22/31 36/48/31 37/33/31
f 15/28/32 14/24/32 29/49/32 30/35/32
f 35/46/33 34/44/33 49/50/33 50/51/33
f 28/47/34 27/45/34 42/52/34 43/53/34
f 36/48/35 35/46/35 50/51/35 51/54/35
f 29/49/36 28/47/36 43/53/36 44/55/36
f 37/33/37 36/48/37 51/54/37 52/56/37
f 30/35/38 29/49/38 44/55/38 45/57/38
f 38/34/39 37/33/39 52/56/39 53/58/39
f 31/36/40 30/35/40 45/57/40 46/59/40
f 24/38/41 1/60/41 39/61/41
f 8/62/42 38/34/42 53/58/42
f 32/40/43 31/36/43 46/59/43 47/63/43
f 25/41/44 24/38/44 39/61/44 40/64/44
f 33/42/45 32/40/45 47/63/45 48/65/45
f 26/43/46 25/41/46 40/64/46 41/66/46
f 34/44/47 33/42/47 48/65/47 49/50/47
f 27/45/48 26/43/48 41/66/48 42/52/48
f 39/61/49 1/67/49 54/68/49
f 8/69/50 53/58/50 68/70/50
f 47/63/51 46/59/51 61/71/51 62/72/51
f 40/64/52 39/61/52 54/68/52 55/73/52
f 48/65/53 47/63/53 62/72/53 63/74/53
f 41/66/54 40/64/54 55/73/54 56/75/54
f 49/50/55 48/65/55 63/74/55 64/76/55
f 42/52/56 41/66/56 56/75/56 57/77/56
f 50/51/57 49/50/57 64/76/57 65/78/57
f 43/53/58 42/52/58 57/77/58 58/79/58
f 51/54/59 50/51/59 65/78/59 66/80/59
f 44/55/60 43/53/60 58/79/60 59/81/60
f 52/56/61 51/54/61 66/80/61 67/82/61
f 45/57/62 44/55/62 59/81/62 60/83/62
f 53/58/63 52/56/63 67/82/63 68/70/63
f 46/59/64 45/57/64 60/83/64 61/71/64
f 58/79/65 57/77/65 72/84/65 73/85/65
f 66/80/66 65/78/66 80/86/66 81/87/66
f 59/81/67 58/79/67 73/85/67 74/88/67
f 67/82/68 66/80/68 81/87/68 82/89/68
f 60/83/69 59/81/69 74/88/69 75/90/69
f 68/70/70 67/82/70 82/89/70 83/91/70
f 61/71/71 60/83/71 75/90/71 76/92/71
f 54/68/72 1/93/72 69/94/72
f 8/95/73 68/70/73 83/91/73
f 62/72/74 61/71/74 76/92/74 77/96/74
f 55/73/75 54/68/75 69/94/75 70/97/75
f 63/74/76 62/72/76 77/96/76 78/98/76
f 56/75/77 55/73/77 70/97/77 71/99/77
f 64/76/78 63/74/78 78/98/78 79/100/78
f 57/77/79 56/75/79 71/99/79 72/84/79
f 65/78/80 64/76/80 79/100/80 80/86/80
f 77/96/81 76/92/81 91/101/81 92/102/81
f 70/97/82 69/94/82 84/103/82 85/104/82
f 78/98/83 77/96/83 92/102/83 93/105/83
f 71/99/84 70/97/84 85/104/84 86/106/84
f 79/100/85 78/98/85 93/105/85 94/107/85
f 72/84/86 71/99/86 86/106/86 87/108/86
f 80/86/87 79/100/87 94/107/87 95/109/87
f 73/85/88 72/84/88 87/108/88 88/110/88
f 81/87/89 80/86/89 95/109/89 96/111/89
f 74/88/90 73/85/90 88/110/90 89/112/90
f 82/89/91 81/87/91 96/111/91 97/113/91
f 75/90/92 74/88/92 89/112/92 90/114/92
f 83/91/93 82/89/93 97/113/93 98/115/93
f 76/92/94 75/90/94 90/114/94 91/101/94
f 69/94/95 1/116/95 84/103/95
f 8/117/96 83/91/96 98/115/96
f 96/111/97 95/109/97 110/118/97 111/119/97
f 89/112/98 88/110/98 103/120/98 104/121/98
f 97/113/99 96/111/99 111/119/99 112/122/99
f 90/114/100 89/112/100 104/121/100 105/123/100
f 98/115/101 97/113/101 112/122/101 113/124/101
f 91/101/102 90/114/102 105/123/102 106/125/102
f 84/103/103 1/126/103 99/127/103
f 8/128/104 98/115/104 113/124/104
f 92/102/105 91/101/105 106/125/105 107/129/105
f 85/104/106 84/103/106 99/127/106 100/130/106
f 93/105/107 92/102/107 107/129/107 108/131/107
f 86/106/108 85/104/108 100/130/108 101/132/108
f 94/107/109 93/105/109 108/131/109 109/133/109
f 87/108/110 86/106/110 101/132/110 102/134/110
f 95/109/111 94/107/111 109/133/111 110/118/111
f 88/110/112 87/108/112 102/134/112 103/120/112
f 100/130/113 99/127/113 114/135/113 115/136/113
f 108/131/114 107/129/114 122/137/114 123/138/114
f 101/132/115 100/130/115 115/136/115 116/139/115
f 109/133/116 108/131/116 123/138/116 124/140/116
f 102/134/117 101/132/117 116/139/117 117/141/117
f 110/118/118 109/133/118 124/140/118 125/142/118
f 103/120/119 102/134/119 117/141/119 118/143/119
f 111/119/120 110/118/120 125/142/120 126/144/120
f 104/121/121 103/120/121 118/143/121 119/145/121
f 112/122/122 111/119/122 126/144/122 127/146/122
f 105/123/123 104/121/123 119/145/123 120/147/123
f 113/124/124 112/122/124 127/146/124 128/148/124
f 106/125/125 105/123/125 120/147/125 121/149/125
f 99/127/126 1/150/126 114/135/126
f 8/151/127 113/124/127 128/148/127
f 107/129/128 106/125/128 121/149/128 122/137/128
f 119/145/129 118/143/129 133/152/129 134/153/129
f 127/146/130 126/144/130 141/154/130 142/155/130
f 120/147/131 119/145/131 134/153/131 135/156/131
f 128/148/132 127/146/132 142/155/132 143/157/132
f 121/149/133 120/147/133 135/156/133 136/158/133
f 114/135/134 1/159/134 129/160/134
f 8/161/135 128/148/135 143/157/135
f 122/137/136 121/149/136 136/158/136 137/162/136
f 115/136/137 114/135/137 129/160/137 130/163/137
f 123/138/138 122/137/138 137/162/138 138/164/138
f 116/139/139 115/136/139 130/163/139 131/165/139
f 124/140/140 123/138/140 138/164/140 139/166/140
f 117/141/141 116/139/141 131/165/141 132/167/141
f 125/142/142 124/140/142 139/166/142 140/168/142
f 118/143/143 117/141/143 132/167/143 133/152/143
f 126/144/144 125/142/144 140/168/144 141/154/144
f 138/164/145 137/162/145 152/169/145 153/170/145
f 131/165/146 130/163/146 145/171/146 146/172/146
f 139/166/147 138/164/147 153/170/147 154/173/147
f 132/167/148 131/165/148 146/172/148 147/174/148
f 140/168/149 139/166/149 154/173/149 155/175/149
f 133/152/150 132/167/150 147/174/150 148/176/150
f 141/154/151 140/168/151 155/175/151 156/177/151
f 134/153/152 133/152/152 148/176/152 149/178/152
f 142/155/153 141/154/153 156/177/153 157/179/153
f 135/156/154 134/153/154 149/178/154 150/180/154
f 143/157/155 142/155/155 157/179/155 158/181/155
f 136/158/156 135/156/156 150/180/156 151/182/156
f 129/160/157 1/183/157 144/184/157
f 8/185/158 143/157/158 158/181/158
f 137/162/159 136/158/159 151/182/159 152/169/159
f 130/163/160 129/160/160 144/184/160 145/171/160
f 157/179/161 156/177/161 171/186/161 172/187/161
f 150/180/162 149/178/162 164/188/162 165/189/162
f 158/181/163 157/179/163 172/187/163 173/190/163
f 151/182/164 150/180/164 165/189/164 166/191/164
f 144/184/165 1/192/165 159/193/165
f 8/194/166 158/181/166 173/190/166
f 152/169/167 151/182/167 166/191/167 167/195/167
f 145/171/168 144/184/168 159/193/168 160/196/168
f 153/170/169 152/169/169 167/195/169 168/197/169
f 146/172/170 145/171/170 160/196/170 161/198/170
f 154/173/171 153/170/171 168/197/171 169/199/171
f 147/174/172 146/172/172 161/198/172 162/200/172
f 155/175/173 154/173/173 169/199/173 170/201/173
f 148/176/174 147/174/174 162/200/174 163/202/174
f 156/177/175 155/175/175 170/201/175 171/186/175
f 149/178/176 148/176/176 163/202/176 164/188/176
f 169/199/177 168/197/177 183/203/177 184/204/177
f 162/200/178 161/198/178 176/205/178 177/206/178
f 170/201/179 169/199/179 184/204/179 185/207/179
f 163/202/180 162/200/180 177/206/180 178/208/180
f 171/186/181 170/201/181 185/207/181 186/209/181
f 164/188/182 163/202/182 178/208/182 179/210/182
f 172/187/183 171/186/183 186/209/183 187/211/183
f 165/189/184 164/188/184 179/210/184 180/212/184
f 173/190/185 172/187/185 187/211/185 188/213/185
f 166/191/186 165/189/186 180/212/186 181/214/186
f 159/193/187 1/215/187 174/216/187
f 8/217/188 173/190/188 188/213/188
f 167/195/189 166/191/189 181/214/189 182/218/189
f 160/196/190 159/193/190 174/216/190 175/219/190
f 168/197/191 167/195/191 182/218/191 183/203/191
f 161/198/192 160/196/192 175/219/192 176/205/192
f 188/213/193 187/211/193 202/220/193 203/221/193
f 181/214/194 180/212/194 195/222/194 196/223/194
f 174/216/195 1/224/195 189/225/195
f 8/226/196 188/213/196 203/221/196
f 182/218/197 181/214/197 196/223/197 197/227/197
f 175/219/198 174/216/198 189/225/198 190/228/198
f 183/203/199 182/218/199 197/227/199 198/229/199
f 176/205/200 175/219/200 190/228/200 191/230/200
f 184/204/201 183/203/201 198/229/201 199/231/201
f 177/206/202 176/205/202 191/230/202 192/232/202
f 185/207/203 184/204/203 199/231/203 200/233/203
f 178/208/204 177/206/204 192/232/204 193/234/204
f 186/209/205 185/207/205 200/233/205 201/235/205
f 179/210/206 178/208/206 193/234/206 194/236/206
f 187/211/207 186/209/207 201/235/207 202/220/207
f 180/212/208 179/210/208 194/236/208 195/222/208
f 192/232/209 191/230/209 206/237/209 207/238/209
f 200/233/210 199/231/210 214/239/210 215/240/210
f 193/234/211 192/232/211 207/238/211 208/241/211
f 201/235/212 200/233/212 215/240/212 216/242/212
f 194/236/213 193/234/213 208/241/213 209/243/213
f 202/220/214 201/235/214 216/242/214 217/244/214
f 195/222/215 194/236/215 209/243/215 210/245/215
f 203/221/216 202/220/216 217/244/216 218/246/216
f 196/223/217 195/222/217 210/245/217 211/247/217
f 189/225/218 1/248/218 204/249/218
f 8/250/219 203/221/219 218/246/219
f 197/227/220 196/223/220 211/247/220 212/251/220
f 190/228/221 189/225/221 204/249/221 205/252/221
f 198/229/222 197/227/222 212/251/222 213/253/222
f 191/230/223 190/228/223 205/252/223 206/237/223
f 199/231/224 198/229/224 213/253/224 214/239/224
f 211/247/225 210/245/225 225/254/225 226/255/225
f 204/249/226 1/256/226 219/257/226
f 8/258/227 218/246/227 233/259/227
f 212/251/228 211/247/228 226/255/228 227/260/228
f 205/252/229 204/249/229 219/257/229 220/261/229
f 213/253/230 212/251/230 227/260/230 228/262/230
f 206/237/231 205/252/231 220/261/231 221/263/231
f 214/239/232 213/253/232 228/262/232 229/264/232
f 207/238/233 206/237/233 221/263/233 222/265/233
f 215/240/234 214/239/234 229/264/234 230/266/234
f 208/241/235 207/238/235 222/265/235 223/267/235
f 216/242/236 215/240/236 230/266/236 231/268/236
f 209/243/237 208/241/237 223/267/237 224/269/237
f 217/244/238 216/242/238 231/268/238 232/270/238
f 210/245/239 209/243/239 224/269/239 225/254/239
f 218/246/240 217/244/240 232/270/240 233/259/240
f 230/266/241 229/264/241 244/271/241 245/272/241
f 223/267/242 222/265/242 237/273/242 238/274/242
f 231/268/243 230/266/243 245/272/243 246/275/243
f 224/269/244 223/267/244 238/274/244 239/276/244
f 232/270/245 231/268/245 246/275/245 247/277/245
f 225/254/246 224/269/246 239/276/246 240/278/246
f 233/259/247 232/270/247 247/277/247 248/279/247
f 226/255/248 225/254/248 240/278/248 241/280/248
f 219/257/249 1/281/249 234/282/249
f 8/283/250 233/259/250 248/279/250
f 227/260/251 226/255/251 241/280/251 242/284/251
f 220/261/252 219/257/252 234/282/252 235/285/252
f 228/262/253 227/260/253 242/284/253 243/286/253
f 221/263/254 220/261/254 235/285/254 236/287/254
f 229/264/255 228/262/255 243/286/255 244/271/255
f 222/265/256 221/263/256 236/287/256 237/273/256
f 234/282/257 1/288/257 249/289/257
f 8/290/258 248/279/258 263/291/258
f 242/284/259 241/280/259 256/292/259 257/293/259
f 235/285/260 234/282/260 249/289/260 250/294/260
f 243/286/261 242/284/261 257/293/261 258/295/261
f 236/287/262 235/285/262 250/294/262 251/296/262
f 244/271/263 243/286/263 258/295/263 259/297/263
f 237/273/264 236/287/264 251/296/264 252/298/264
f 245/272/265 244/271/265 259/297/265 260/299/265
f 238/274/266 237/273/266 252/298/266 253/300/266
f 246/275/267 245/272/267 260/299/267 261/301/267
f 239/276/268 238/274/268 253/300/268 254/302/268
f 247/277/269 246/275/269 261/301/269 262/303/269
f 240/278/270 239/276/270 254/302/270 255/304/270
f 248/279/271 247/277/271 262/303/271 263/291/271
f 241/280/272 240/278/272 255/304/272 256/292/272
f 253/300/273 252/298/273 267/305/273 268/306/273
f 261/301/274 260/299/274 275/307/274 276/308/274
f 254/302/275 253/300/275 268/306/275 269/309/275
f 262/303/276 261/301/276 276/308/276 277/310/276
f 255/304/277 254/302/277 269/309/277 270/311/277
f 263/291/278 262/303/278 277/310/278 278/312/278
f 256/292/279 255/304/279 270/311/279 271/313/279
f 249/289/280 1/314/280 264/315/280
f 8/316/281 263/291/281 278/312/281
f 257/293/282 256/292/282 271/313/282 272/317/282
f 250/294/283 249/289/283 264/315/283 265/318/283
f 258/295/284 257/293/284 272/317/284 273/319/284
f 251/296/285 250/294/285 265/318/285 266/320/285
f 259/297/286 258/295/286 273/319/286 274/321/286
f 252/298/287 251/296/287 266/320/287 267/305/287
f 260/299/288 259/297/288 274/321/288 275/307/288
f 272/317/289 271/313/289 286/322/289 287/323/289
f 265/318/290 264/315/290 279/324/290 280/325/290
f 273/319/291 272/317/291 287/323/291 288/326/291
f 266/320/292 265/318/292 280/325/292 281/327/292
f 274/321/293 273/319/293 288/326/293 289/328/293
f 267/305/294 266/320/294 281/327/294 282/329/294
f 275/307/295 274/321/295 289/328/295 290/330/295
f 268/306/296 267/305/296 282/329/296 283/331/296
f 276/308/297 275/307/297 290/330/297 291/332/297
f 269/309/298 268/306/298 283/331/298 284/333/298
f 277/310/299 276/308/299 291/332/299 292/334/299
f 270/311/300 269/309/300 284/333/300 285/335/300
f 278/312/301 277/310/301 292/334/301 293/336/301
f 271/313/302 270/311/302 285/335/302 286/322/302
f 264/315/303 1/337/303 279/324/303
f 8/338/304 278/312/304 293/336/304
f 291/332/305 290/330/305 305/339/305 306/340/305
f 284/333/306 283/331/306 298/341/306 299/342/306
f 292/334/307 291/332/307 306/340/307 307/343/307
f 285/335/308 284/333/308 299/342/308 300/344/308
f 293/336/309 292/334/309 307/343/309 308/345/309
f 286/322/310 285/335/310 300/344/310 301/346/310
f 279/324/311 1/347/311 294/348/311
f 8/349/312 293/336/312 308/345/312
f 287/323/313 286/322/313 301/346/313 302/350/313
f 280/325/314 279/324/314 294/348/314 295/351/314
f 288/326/315 287/323/315 302/350/315 303/352/315
f 281/327/316 280/325/316 295/351/316 296/353/316
f 289/328/317 288/326/317 303/352/317 304/354/317
f 282/329/318 281/327/318 296/353/318 297/355/318
f 290/330/319 289/328/319 304/354/319 305/339/319
f 283/331/320 282/329/320 297/355/320 298/341/320
f 303/352/321 302/350/321 317/356/321 318/357/321
f 296/353/322 295/351/322 310/358/322 311/359/322
f 304/354/323 303/352/323 318/357/323 319/360/323
f 297/355/324 296/353/324 311/359/324 312/361/324
f 305/339/325 304/354/325 319/360/325 320/362/325
f 298/341/326 297/355/326 312/361/326 313/363/326
f 306/340/327 305/339/327 320/362/327 321/364/327
f 299/342/328 298/341/328 313/363/328 314/365/328
f 307/343/329 306/340/329 321/364/329 322/366/329
f 300/344/330 299/342/330 314/365/330 315/367/330
f 308/345/331 307/343/331 322/366/331 323/368/331
f 301/346/332 300/344/332 315/367/332 316/369/332
f 294/348/333 1/370/333 309/371/333
f 8/372/334 308/345/334 323/368/334
f 302/350/335 301/346/335 316/369/335 317/356/335
f 295/351/336 294/348/336 309/371/336 310/358/336
f 322/366/337 321/364/337 336/373/337 337/374/337
f 315/367/338 314/365/338 329/375/338 330/376/338
f 323/368/339 322/366/339 337/374/339 338/377/339
f 316/369/340 315/367/340 330/376/340 331/378/340
f 309/371/341 1/379/341 324/380/341
f 8/381/342 323/368/342 338/377/342
f 317/356/343 316/369/343 331/378/343 332/382/343
f 310/358/344 309/371/344 324/380/344 325/383/344
f 318/357/345 317/356/345 332/382/345 333/384/345
f 311/359/346 310/358/346 325/383/346 326/385/346
f 319/360/347 318/357/347 333/384/347 334/386/347
f 312/361/348 311/359/348 326/385/348 327/387/348
f 320/362/349 319/360/349 334/386/349 335/388/349
f 313/363/350 312/361/350 327/387/350 328/389/350
f 321/364/351 320/362/351 335/388/351 336/373/351
f 314/365/352 313/363/352 328/389/352 329/375/352
f 326/385/353 325/383/353 340/390/353 341/391/353
f 334/386/354 333/384/354 348/392/354 349/393/354
f 327/387/355 326/385/355 341/391/355 342/394/355
f 335/388/356 334/386/356 349/393/356 350/395/356
f 328/389/357 327/387/357 342/394/357 343/396/357
f 336/373/358 335/388/358 350/395/358 351/397/358
f 329/375/359 328/389/359 343/396/359 344/398/359
f 337/374/360 336/373/360 351/397/360 352/399/360
f 330/376/361 329/375/361 344/398/361 345/400/361
f 338/377/362 337/374/362 352/399/362 353/401/362
f 331/378/363 330/376/363 345/400/363 346/402/363
f 324/380/364 1/403/364 339/404/364
f 8/405/365 338/377/365 353/401/365
f 332/382/366 331/378/366 346/402/366 347/406/366
f 325/383/367 324/380/367 339/404/367 340/390/367
f 333/384/368 332/382/368 347/406/368 348/392/368
f 345/400/369 344/398/369 359/407/369 360/408/369
f 353/401/370 352/399/370 367/409/370 368/410/370
f 346/402/371 345/400/371 360/408/371 361/411/371
f 339/404/372 1/412/372 354/413/372
f 8/414/373 353/401/373 368/410/373
f 347/406/374 346/402/374 361/411/374 362/415/374
f 340/390/375 339/404/375 354/413/375 355/416/375
f 348/392/376 347/406/376 362/415/376 363/417/376
f 341/391/377 340/390/377 355/416/377 356/418/377
f 349/393/378 348/392/378 363/417/378 364/419/378
f 342/394/379 341/391/379 356/418/379 357/420/379
f 350/395/380 349/393/380 364/419/380 365/421/380
f 343/396/381 342/394/381 357/420/381 358/422/381
f 351/397/382 350/395/382 365/421/382 366/423/382
f 344/398/383 343/396/383 358/422/383 359/407/383
f 352/399/384 351/397/384 366/423/384 367/409/384
f 364/424/385 363/425/385 378/426/385 379/427/385
f 357/428/386 356/429/386 371/430/386 372/431/386
f 365/432/387 364/424/387 379/427/387 380/433/387
f 358/434/388 357/428/388 372/431/388 373/435/388
f 366/436/389 365/432/389 380/433/389 381/437/389
f 359/438/390 358/434/390 373/435/390 374/439/390
f 367/440/391 366/436/391 381/437/391 382/441/391
f 360/442/392 359/438/392 374/439/392 375/443/392
f 368/444/393 367/440/393 382/441/393 383/445/393
f 361/446/394 360/442/394 375/443/394 376/447/394
f 354/448/395 1/449/395 369/450/395
f 8/451/396 368/444/396 383/445/396
f 362/452/397 361/446/397 376/447/397 377/453/397
f 355/454/398 354/448/398 369/450/398 370/455/398
f 363/425/399 362/452/399 377/453/399 378/426/399
f 356/429/400 355/454/400 370/455/400 371/430/400
f 383/445/401 382/441/401 397/456/401 398/457/401
f 376/447/402 375/443/402 390/458/402 391/459/402
f 369/450/403 1/460/403 384/461/403
f 8/462/404 383/445/404 398/457/404
f 377/453/405 376/447/405 391/459/405 392/463/405
f 370/455/406 369/450/406 384/461/406 385/464/406
f 378/426/407 377/453/407 392/463/407 393/465/407
f 371/430/408 370/455/408 385/464/408 386/466/408
f 379/427/409 378/426/409 393/465/409 394/467/409
f 372/431/410 371/430/410 386/466/410 387/468/410
f 380/433/411 379/427/411 394/467/411 395/469/411
f 373/435/412 372/431/412 387/468/412 388/470/412
f 381/437/413 380/433/413 395/469/413 396/471/413
f 374/439/414 373/435/414 388/470/414 389/472/414
f 382/441/415 381/437/415 396/471/415 397/456/415
f 375/443/416 374/439/416 389/472/416 390/458/416
f 387/468/417 386/466/417 401/473/417 402/474/417
f 395/469/418 394/467/418 409/475/418 410/476/418
f 388/470/419 387/468/419 402/474/419 403/477/419
f 396/471/420 395/469/420 410/476/420 411/478/420
f 389/472/421 388/470/421 403/477/421 404/479/421
f 397/456/422 396/471/422 411/478/422 412/480/422
f 390/458/423 389/472/423 404/479/423 405/481/423
f 398/457/424 397/456/424 412/480/424 413/482/424
f 391/459/425 390/458/425 405/481/425 406/483/425
f 384/461/426 1/484/426 399/485/426
f 8/486/427 398/457/427 413/482/427
f 392/463/428 391/459/428 406/483/428 407/487/428
f 385/464/429 384/461/429 399/485/429 400/488/429
f 393/465/430 392/463/430 407/487/430 408/489/430
f 386/466/431 385/464/431 400/488/431 401/473/431
f 394/467/432 393/465/432 408/489/432 409/475/432
f 406/483/433 405/481/433 420/490/433 421/491/433
f 399/485/434 1/492/434 414/493/434
f 8/494/435 413/482/435 428/495/435
f 407/487/436 406/483/436 421/491/436 422/496/436
f 400/488/437 399/485/437 414/493/437 415/497/437
f 408/489/438 407/487/438 422/496/438 423/498/438
f 401/473/439 400/488/439 415/497/439 416/499/439
f 409/475/440 408/489/440 423/498/440 424/500/440
f 402/474/441 401/473/441 416/499/441 417/501/441
f 410/476/442 409/475/442 424/500/442 425/502/442
f 403/477/443 402/474/443 417/501/443 418/503/443
f 411/478/444 410/476/444 425/502/444 426/504/444
f 404/479/445 403/477/445 418/503/445 419/505/445
f 412/480/446 411/478/446 426/504/446 427/506/446
f 405/481/447 404/479/447 419/505/447 420/490/447
f 413/482/448 412/480/448 427/506/448 428/495/448
f 425/502/449 424/500/449 439/507/449 440/508/449
f 418/503/450 417/501/450 432/509/450 433/510/450
f 426/504/451 425/502/451 440/508/451 441/511/451
f 419/505/452 418/503/452 433/510/452 434/512/452
f 427/506/453 426/504/453 441/511/453 442/513/453
f 420/490/454 419/505/454 434/512/454 435/514/454
f 428/495/455 427/506/455 442/513/455 443/515/455
f 421/491/456 420/490/456 435/514/456 436/516/456
f 414/493/457 1/517/457 429/518/457
f 8/519/458 428/495/458 443/515/458
f 422/496/459 421/491/459 436/516/459 437/520/459
f 415/497/460 414/493/460 429/518/460 430/521/460
f 423/498/461 422/496/461 437/520/461 438/522/461
f 416/499/462 415/497/462 430/521/462 431/523/462
f 424/500/463 423/498/463 438/522/463 439/507/463
f 417/501/464 416/499/464 431/523/464 432/509/464
f 8/524/465 443/515/465 458/525/465
f 437/520/466 436/516/466 451/526/466 452/527/466
f 430/521/467 429/518/467 444/528/467 445/529/467
f 438/522/468 437/520/468 452/527/468 453/530/468
f 431/523/469 430/521/469 445/529/469 446/531/469
f 439/507/470 438/522/470 453/530/470 454/532/470
f 432/509/471 431/523/471 446/531/471 447/533/471
f 440/508/472 439/507/472 454/532/472 455/534/472
f 433/510/473 432/509/473 447/533/473 448/535/473
f 441/511/474 440/508/474 455/534/474 456/536/474
f 434/512/475 433/510/475 448/535/475 449/537/475
f 442/513/476 441/511/476 456/536/476 457/538/476
f 435/514/477 434/512/477 449/537/477 450/539/477
f 443/515/478 442/513/478 457/538/478 458/525/478
f 436/516/479 435/514/479 450/539/479 451/526/479
f 429/518/480 1/540/480 444/528/480
f 456/536/481 455/534/481 470/541/481 471/542/481
f 449/537/482 448/535/482 463/543/482 464/544/482
f 457/538/483 456/536/483 471/542/483 472/545/483
f 450/539/484 449/537/484 464/544/484 465/546/484
f 458/525/485 457/538/485 472/545/485 473/547/485
f 451/526/486 450/539/486 465/546/486 466/548/486
f 444/528/487 1/549/487 459/550/487
f 8/551/488 458/525/488 473/547/488
f 452/527/489 451/526/489 466/548/489 467/552/489
f 445/529/490 444/528/490 459/550/490 460/553/490
f 453/530/491 452/527/491 467/552/491 468/554/491
f 446/531/492 445/529/492 460/553/492 461/555/492
f 454/532/493 453/530/493 468/554/493 469/556/493
f 447/533/494 446/531/494 461/555/494 462/557/494
f 455/534/495 454/532/495 469/556/495 470/541/495
f 448/535/496 447/533/496 462/557/496 463/543/496
f 460/553/497 459/550/497 474/6/497 475/5/497
f 468/554/498 467/552/498 6/1/498 478/9/498
f 461/555/499 460/553/499 475/5/499 2/11/499
f 469/556/500 468/554/500 478/9/500 7/13/500
f 462/557/501 461/555/501 2/11/501 476/15/501
f 470/541/502 469/556/502 7/13/502 479/17/502
f 463/543/503 462/557/503 476/15/503 3/19/503
f 471/542/504 470/541/504 479/17/504 480/21/504
f 464/544/505 463/543/505 3/19/505 477/23/505
f 472/545/506 471/542/506 480/21/506 481/25/506
f 465/546/507 464/544/507 477/23/507 4/27/507
f 473/547/508 472/545/508 481/25/508 482/29/508
f 466/548/509 465/546/509 4/27/509 5/2/509
f 459/550/510 1/558/510 474/6/510
f 8/559/511 473/547/511 482/29/511
f 467/552/512 466/548/512 5/2/512 6/1/512
